<svg width="32" height="32" viewBox="0 0 32 32" fill="none" xmlns="http://www.w3.org/2000/svg">
<path opacity="0.2" d="M27.001 6H9.00098C8.86965 6 8.73962 6.02586 8.61829 6.07612C8.49697 6.12637 8.38673 6.20003 8.29387 6.29289C8.20101 6.38575 8.12735 6.49599 8.07709 6.61732C8.02684 6.73864 8.00098 6.86868 8.00098 7V10H23.001C23.1323 10 23.2623 10.0259 23.3837 10.0761C23.505 10.1264 23.6152 10.2 23.7081 10.2929C23.8009 10.3857 23.8746 10.496 23.9249 10.6173C23.9751 10.7386 24.001 10.8687 24.001 11V22H27.001C27.1323 22 27.2623 21.9741 27.3837 21.9239C27.505 21.8736 27.6152 21.8 27.7081 21.7071C27.801 21.6143 27.8746 21.504 27.9249 21.3827C27.9751 21.2614 28.001 21.1313 28.001 21V7C28.001 6.86868 27.9751 6.73864 27.9249 6.61732C27.8746 6.49599 27.8009 6.38575 27.7081 6.29289C27.6152 6.20003 27.505 6.12637 27.3837 6.07612C27.2623 6.02586 27.1323 6 27.001 6Z" fill="#602CDB"/>
<path d="M23.001 10H5.00098C4.44869 10 4.00098 10.4477 4.00098 11V25C4.00098 25.5523 4.44869 26 5.00098 26H23.001C23.5533 26 24.001 25.5523 24.001 25V11C24.001 10.4477 23.5533 10 23.001 10Z" stroke="#602CDB" stroke-width="2" stroke-linecap="round" stroke-linejoin="round"/>
<path d="M8.00098 10V7C8.00098 6.73478 8.10633 6.48043 8.29387 6.29289C8.48141 6.10536 8.73576 6 9.00098 6H27.001C27.2662 6 27.5205 6.10536 27.7081 6.29289C27.8956 6.48043 28.001 6.73478 28.001 7V21C28.001 21.2652 27.8956 21.5196 27.7081 21.7071C27.5205 21.8946 27.2662 22 27.001 22H24.001" stroke="#602CDB" stroke-width="2" stroke-linecap="round" stroke-linejoin="round"/>
<path d="M4 14H24" stroke="#602CDB" stroke-width="2" stroke-linecap="round" stroke-linejoin="round"/>
</svg>
