<svg width="32" height="32" viewBox="0 0 32 32" fill="none" xmlns="http://www.w3.org/2000/svg">
<path opacity="0.2" d="M6.19813 22.9244C4.57115 20.6205 3.80757 17.8172 4.04139 15.0065C4.27521 12.1957 5.4915 9.5571 7.4768 7.55371C9.4621 5.55033 12.0896 4.31016 14.8981 4.05085C17.7066 3.79154 20.5167 4.52966 22.8352 6.13568L22.8347 6.13639L23.3465 8.91226C23.3815 9.10219 23.3529 9.29837 23.2652 9.47043C23.1775 9.64248 23.0354 9.78081 22.8611 9.864L20.378 11.0491C20.1933 11.1373 20.0452 11.2872 19.9593 11.4729C19.8733 11.6586 19.855 11.8685 19.9073 12.0664C19.9527 12.2376 19.9451 12.4186 19.8858 12.5855C19.8264 12.7524 19.7179 12.8974 19.5745 13.0016C19.4312 13.1057 19.2597 13.164 19.0827 13.1689C18.9056 13.1738 18.7311 13.125 18.5823 13.029L16.7805 11.8663C16.6801 11.8015 16.5675 11.7579 16.4497 11.7381C16.3319 11.7183 16.2113 11.7228 16.0953 11.7512C15.9792 11.7797 15.8702 11.8315 15.7749 11.9035C15.6796 11.9756 15.6 12.0663 15.5409 12.1701L14.9507 13.2083C14.8679 13.3539 14.7452 13.4728 14.5971 13.551C14.449 13.6291 14.2816 13.6633 14.1147 13.6494C13.9478 13.6356 13.7883 13.5743 13.6551 13.4728C13.5219 13.3713 13.4205 13.2338 13.3628 13.0766L13.1911 12.6082C13.1181 12.4092 12.9755 12.2432 12.7898 12.1411L11.8905 11.6465C11.7379 11.5625 11.5637 11.5259 11.3902 11.5412C11.2167 11.5565 11.0516 11.623 10.9161 11.7324L8.87153 13.3812C8.78091 13.4543 8.70573 13.5446 8.65036 13.647L7.31469 16.1168C7.21985 16.2921 7.1875 16.4945 7.22296 16.6907L8.03045 21.158C8.0621 21.3331 8.03982 21.5136 7.96654 21.6758C7.89327 21.8379 7.77246 21.974 7.62013 22.066L6.1983 22.9243L6.19813 22.9244Z" fill="#602CDB"/>
<path opacity="0.2" d="M27.0767 20.6243C26.373 22.3049 25.2967 23.8037 23.9292 25.0076L23.9286 25.007L22.1076 23.1824C22.026 23.1006 21.9291 23.0358 21.8225 22.9915C21.7158 22.9473 21.6015 22.9245 21.486 22.9245H20.0566C19.9305 22.9245 19.8058 22.8974 19.6911 22.8449C19.5765 22.7924 19.4744 22.7158 19.392 22.6203C19.3095 22.5248 19.2486 22.4127 19.2134 22.2916C19.1782 22.1705 19.1695 22.0432 19.1878 21.9184L19.4854 19.8973C19.5056 19.7601 19.5581 19.6295 19.6385 19.5164C19.7189 19.4033 19.825 19.3109 19.948 19.2467L22.9309 17.6904C23.0889 17.608 23.2683 17.5756 23.4452 17.5975C23.6221 17.6195 23.7882 17.6947 23.9213 17.8133L27.0762 20.6241L27.0767 20.6243Z" fill="#602CDB"/>
<path d="M16 28C22.6274 28 28 22.6274 28 16C28 9.37258 22.6274 4 16 4C9.37258 4 4 9.37258 4 16C4 22.6274 9.37258 28 16 28Z" stroke="#602CDB" stroke-width="2" stroke-miterlimit="10"/>
<path d="M6.1983 22.9246L7.62013 22.0663C7.77246 21.9743 7.89327 21.8383 7.96654 21.6761C8.03982 21.514 8.0621 21.3334 8.03045 21.1583L7.22296 16.691C7.1875 16.4949 7.21985 16.2924 7.31469 16.1171L8.65036 13.6473C8.70573 13.545 8.78091 13.4546 8.87153 13.3815L10.9161 11.7327C11.0517 11.6234 11.2167 11.5568 11.3902 11.5415C11.5637 11.5262 11.7379 11.5629 11.8905 11.6468L12.7898 12.1414C12.9755 12.2436 13.1181 12.4095 13.1911 12.6086L13.3628 13.0769C13.4205 13.2342 13.5219 13.3716 13.6551 13.4731C13.7883 13.5746 13.9478 13.6359 14.1147 13.6498C14.2816 13.6636 14.449 13.6294 14.5971 13.5513C14.7452 13.4731 14.8679 13.3542 14.9507 13.2086L15.5409 12.1705C15.6 12.0666 15.6796 11.9759 15.7749 11.9039C15.8702 11.8318 15.9792 11.78 16.0953 11.7516C16.2113 11.7231 16.3319 11.7187 16.4497 11.7384C16.5675 11.7582 16.6801 11.8018 16.7805 11.8666L18.5823 13.0293C18.7311 13.1253 18.9056 13.1741 19.0827 13.1692C19.2597 13.1643 19.4312 13.106 19.5745 13.0019C19.7179 12.8978 19.8264 12.7527 19.8858 12.5858C19.9452 12.4189 19.9527 12.2379 19.9073 12.0667V12.0667C19.855 11.8689 19.8733 11.6589 19.9593 11.4732C20.0452 11.2875 20.1933 11.1376 20.378 11.0494L22.8611 9.86432C23.0354 9.78114 23.1775 9.64281 23.2652 9.47075C23.3529 9.2987 23.3815 9.10252 23.3465 8.91259L22.8348 6.13672" stroke="#602CDB" stroke-width="2" stroke-linecap="round" stroke-linejoin="round"/>
<path d="M23.9286 25.007L22.1076 23.1824C22.026 23.1006 21.9291 23.0358 21.8225 22.9915C21.7158 22.9473 21.6015 22.9245 21.486 22.9245H20.0566C19.9305 22.9245 19.8058 22.8974 19.6911 22.8449C19.5765 22.7924 19.4744 22.7158 19.392 22.6203C19.3095 22.5248 19.2486 22.4127 19.2134 22.2916C19.1782 22.1705 19.1695 22.0432 19.1878 21.9184L19.4854 19.8973C19.5056 19.7601 19.5581 19.6295 19.6385 19.5164C19.7189 19.4033 19.825 19.3109 19.948 19.2467L22.9309 17.6904C23.0889 17.608 23.2683 17.5756 23.4452 17.5975C23.6221 17.6195 23.7882 17.6947 23.9213 17.8133L27.0762 20.6241" stroke="#602CDB" stroke-width="2" stroke-linecap="round" stroke-linejoin="round"/>
</svg>
