<svg width="32" height="32" viewBox="0 0 32 32" fill="none" xmlns="http://www.w3.org/2000/svg">
<path d="M11.7566 20.2411L20.2419 11.7559" stroke="#602CDB" stroke-width="2" stroke-linecap="round" stroke-linejoin="round"/>
<path d="M18.1203 22.3642L14.5847 25.8997C13.4595 27.0249 11.9334 27.6571 10.3421 27.6571C8.7508 27.6571 7.22468 27.0249 6.09946 25.8997C4.97424 24.7745 4.3421 23.2484 4.3421 21.6571C4.3421 20.0658 4.97424 18.5397 6.09946 17.4144L9.63499 13.8789" stroke="#602CDB" stroke-width="2" stroke-linecap="round" stroke-linejoin="round"/>
<path d="M22.3635 18.1202L25.899 14.5847C27.0239 13.4594 27.6558 11.9334 27.6557 10.3423C27.6555 8.75114 27.0234 7.22523 25.8983 6.10013C24.7732 4.97504 23.2473 4.34291 21.6562 4.34277C20.0651 4.34264 18.5391 4.97451 17.4138 6.09941L13.8782 9.63494" stroke="#602CDB" stroke-width="2" stroke-linecap="round" stroke-linejoin="round"/>
</svg>
