<svg width="32" height="32" viewBox="0 0 32 32" fill="none" xmlns="http://www.w3.org/2000/svg">
<path opacity="0.2" d="M11 20C14.5899 20 17.5 17.0899 17.5 13.5C17.5 9.91015 14.5899 7 11 7C7.41015 7 4.5 9.91015 4.5 13.5C4.5 17.0899 7.41015 20 11 20Z" fill="#602CDB"/>
<path d="M11 20C14.5899 20 17.5 17.0899 17.5 13.5C17.5 9.91015 14.5899 7 11 7C7.41015 7 4.5 9.91015 4.5 13.5C4.5 17.0899 7.41015 20 11 20Z" stroke="#602CDB" stroke-width="2" stroke-miterlimit="10"/>
<path d="M19.4265 7.24166C20.3205 6.98977 21.2582 6.93239 22.1762 7.07338C23.0943 7.21437 23.9715 7.55046 24.7487 8.05901C25.526 8.56756 26.1852 9.23677 26.682 10.0216C27.1789 10.8063 27.5018 11.6885 27.629 12.6086C27.7562 13.5287 27.6847 14.4653 27.4194 15.3555C27.1541 16.2456 26.7012 17.0686 26.0911 17.7689C25.481 18.4693 24.7278 19.0307 23.8825 19.4155C23.0371 19.8003 22.119 19.9994 21.1902 19.9995" stroke="#602CDB" stroke-width="2" stroke-linecap="round" stroke-linejoin="round"/>
<path d="M1.99951 24.6746C3.01468 23.2306 4.36238 22.052 5.92882 21.2384C7.49527 20.4248 9.23448 20.0001 10.9996 20C12.7648 19.9999 14.504 20.4246 16.0705 21.238C17.637 22.0515 18.9848 23.23 20.0001 24.6739" stroke="#602CDB" stroke-width="2" stroke-linecap="round" stroke-linejoin="round"/>
<path d="M21.1903 20C22.9556 19.9987 24.6952 20.4228 26.2619 21.2364C27.8285 22.05 29.176 23.2291 30.1903 24.6739" stroke="#602CDB" stroke-width="2" stroke-linecap="round" stroke-linejoin="round"/>
</svg>
