<svg width="136" height="48" viewBox="0 0 136 48" fill="none" xmlns="http://www.w3.org/2000/svg">
<path d="M75.934 43.2389C73.9518 43.2389 72.2661 42.936 70.8767 42.3301C69.4874 41.7059 68.4222 40.7236 67.6812 39.3834C66.9402 38.0431 66.5697 36.2989 66.5697 34.1508C66.5697 32.8106 66.5697 31.4611 66.5697 30.1025C66.5697 28.7439 66.5697 27.3577 66.5697 25.944C66.5697 24.512 66.5697 23.0524 66.5697 21.5652C66.5697 20.0781 66.5697 18.5359 66.5697 16.9386C66.5697 14.9374 66.5697 13.0922 66.5697 11.4031C66.5697 9.71403 66.5697 7.98822 66.5697 6.22568L73.5443 4.93132C73.5443 6.32666 73.5443 7.64856 73.5443 8.89702C73.5443 10.1271 73.5443 11.3848 73.5443 12.6699C73.5443 13.9551 73.5443 15.378 73.5443 16.9386V32.0578C73.5443 33.8387 73.887 35.1882 74.5724 36.1062C75.2764 37.0058 76.3878 37.4556 77.9069 37.4556C78.5367 37.4556 79.2129 37.3454 79.9353 37.1251C80.6763 36.9048 81.371 36.5652 82.0194 36.1062L82.4917 41.8619C82.0286 42.1557 81.4451 42.4036 80.7412 42.6055C80.0557 42.8075 79.2962 42.9635 78.4626 43.0737C77.629 43.1838 76.7861 43.2389 75.934 43.2389ZM61.8181 20.4361V15.121H82.2972V20.4361C80.5189 20.4361 78.7312 20.4361 76.9343 20.4361C75.1374 20.4361 73.3961 20.4361 71.7103 20.4361H68.626H61.8181Z" fill="#242D3D"/>
<path d="M86.7507 42.5504C86.7507 40.5676 86.7507 38.649 86.7507 36.7947C86.7507 34.9403 86.7507 32.8748 86.7507 30.5982V27.8443C86.7507 26.0817 86.7507 24.4936 86.7507 23.0799C86.7507 21.6479 86.7507 20.2984 86.7507 19.0316C86.7507 17.7464 86.7507 16.4429 86.7507 15.121L93.8086 14.9007C93.8086 16.2409 93.8086 17.5628 93.8086 18.8664C93.8086 20.1699 93.8086 21.5469 93.8086 22.9973C93.8086 24.4294 93.8086 26.045 93.8086 27.8443V30.5982C93.8086 32.8748 93.8086 34.9403 93.8086 36.7947C93.8086 38.649 93.8086 40.5676 93.8086 42.5504H86.7507ZM90.1963 10.1914C88.844 10.1914 87.7603 9.86091 86.9452 9.19996C86.1301 8.52065 85.7226 7.4466 85.7226 5.97782C85.7226 4.63756 86.1301 3.6186 86.9452 2.92093C87.7603 2.2049 88.8625 1.84688 90.2519 1.84688C91.6412 1.84688 92.7342 2.21408 93.5308 2.94847C94.3459 3.68285 94.7534 4.69264 94.7534 5.97782C94.7534 7.4466 94.3459 8.52065 93.5308 9.19996C92.7342 9.86091 91.6227 10.1914 90.1963 10.1914Z" fill="#242D3D"/>
<path d="M100.542 42.5504C100.542 40.5676 100.542 38.649 100.542 36.7947C100.542 34.9403 100.542 32.8748 100.542 30.5982V15.3688C100.542 13.1106 100.542 10.8891 100.542 8.70424C100.542 6.50108 100.542 4.33463 100.542 2.2049L107.599 1.54395C107.599 3.72875 107.599 5.95946 107.599 8.23607C107.599 10.4943 107.599 12.8719 107.599 15.3688V30.5982C107.599 32.8748 107.599 34.9403 107.599 36.7947C107.599 38.649 107.599 40.5676 107.599 42.5504H100.542Z" fill="#242D3D"/>
<path d="M114.2 42.5504C114.2 40.5676 114.2 38.649 114.2 36.7947C114.2 34.9403 114.2 32.8748 114.2 30.5982V15.3688C114.2 13.1106 114.2 10.8891 114.2 8.70424C114.2 6.50108 114.2 4.33463 114.2 2.2049L121.258 1.54395C121.258 3.72875 121.258 5.95946 121.258 8.23607C121.258 10.4943 121.258 12.8719 121.258 15.3688V30.5982C121.258 32.8748 121.258 34.9403 121.258 36.7947C121.258 38.649 121.258 40.5676 121.258 42.5504H114.2Z" fill="#242D3D"/>
<path d="M127.997 42.5504C127.997 40.5676 127.997 38.649 127.997 36.7947C127.997 34.9403 127.997 32.8748 127.997 30.5982V27.8443C127.997 26.0817 127.997 24.4936 127.997 23.0799C127.997 21.6479 127.997 20.2984 127.997 19.0316C127.997 17.7464 127.997 16.4429 127.997 15.121L135.055 14.9007C135.055 16.2409 135.055 17.5628 135.055 18.8664C135.055 20.1699 135.055 21.5469 135.055 22.9973C135.055 24.4294 135.055 26.045 135.055 27.8443V30.5982C135.055 32.8748 135.055 34.9403 135.055 36.7947C135.055 38.649 135.055 40.5676 135.055 42.5504H127.997ZM131.443 10.1914C130.091 10.1914 129.007 9.86091 128.192 9.19996C127.377 8.52065 126.969 7.4466 126.969 5.97782C126.969 4.63756 127.377 3.6186 128.192 2.92093C129.007 2.2049 130.109 1.84688 131.498 1.84688C132.888 1.84688 133.981 2.21408 134.777 2.94847C135.592 3.68285 136 4.69264 136 5.97782C136 7.4466 135.592 8.52065 134.777 9.19996C133.981 9.86091 132.869 10.1914 131.443 10.1914Z" fill="#242D3D"/>
<path d="M43.0495 41.1807C43.2543 43.8945 40.6994 45.9875 38.0764 45.2546L26.4929 42.0184C23.4321 41.1632 22.6029 37.2185 25.0607 35.2051L35.7396 26.457C38.1974 24.4436 41.906 26.0296 42.145 29.1963L43.0495 41.1807Z" fill="#4613C1"/>
<ellipse cx="21.846" cy="21.8291" rx="21.846" ry="21.8291" fill="#602CDB"/>
<path d="M33.33 22.7718C33.8825 22.7716 34.3336 23.221 34.2899 23.7717C33.78 30.1931 28.4035 35.2453 21.846 35.2453C15.2885 35.2453 9.91195 30.1931 9.4021 23.7717C9.35837 23.221 9.80954 22.7716 10.362 22.7718C12.2672 22.7723 16.6918 22.7734 21.846 22.7734C27.0001 22.7734 31.4247 22.7723 33.33 22.7718Z" fill="white"/>
</svg>
