<svg width="137" height="50" viewBox="0 0 137 50" fill="none" xmlns="http://www.w3.org/2000/svg">
<path d="M71.3864 50C69.3112 50 67.5351 49.6959 66.0581 49.0876C64.5999 48.4608 63.4781 47.4654 62.6929 46.1014C61.9263 44.7373 61.5431 42.9401 61.5431 40.7097C61.5431 39.5115 61.5431 38.2857 61.5431 37.0323C61.5431 35.7604 61.5431 34.4332 61.5431 33.0507C61.5431 31.6682 61.5431 30.212 61.5431 28.682C61.5431 27.1521 61.5431 25.5023 61.5431 23.7327C61.5431 21.6498 61.5431 19.7419 61.5431 18.0092C61.5431 16.2765 61.5431 14.5069 61.5431 12.7005L69.7879 11.235C69.7879 12.6728 69.7879 14.0369 69.7879 15.3272C69.7879 16.5991 69.7879 17.9171 69.7879 19.2811C69.7879 20.6267 69.7879 22.1106 69.7879 23.7327V38.1106C69.7879 39.788 70.0964 41.0691 70.7134 41.9539C71.349 42.8203 72.3773 43.2535 73.7982 43.2535C74.3965 43.2535 75.0508 43.1521 75.7613 42.9493C76.4717 42.7281 77.1541 42.3871 77.8084 41.9263L78.2852 48.6175C77.7991 48.9124 77.1821 49.1613 76.4343 49.3641C75.6865 49.5668 74.8732 49.7235 73.9945 49.8341C73.1158 49.9447 72.2464 50 71.3864 50ZM57 27.8802V21.659H78.145V27.8802C76.3876 27.8802 74.6208 27.8802 72.8447 27.8802C71.0873 27.8802 69.386 27.8802 67.7407 27.8802H64.0109H57Z" fill="#242D3D"/>
<path d="M82.8585 49.2535C82.8585 47.2811 82.8585 45.3733 82.8585 43.53C82.8585 41.6682 82.8585 39.5945 82.8585 37.3088V34.5438C82.8585 32.7189 82.8585 31.0876 82.8585 29.6498C82.8585 28.1935 82.8585 26.8295 82.8585 25.5576C82.8585 24.2673 82.8585 22.9677 82.8585 21.659L91.2436 21.4101C91.2436 22.7373 91.2436 24.0553 91.2436 25.3641C91.2436 26.6728 91.2436 28.0645 91.2436 29.5392C91.2436 31.0138 91.2436 32.682 91.2436 34.5438V37.3088C91.2436 39.5945 91.2436 41.6682 91.2436 43.53C91.2436 45.3733 91.2436 47.2811 91.2436 49.2535H82.8585ZM86.9809 17.4009C85.4292 17.4009 84.1859 17.0415 83.2511 16.3226C82.335 15.5853 81.877 14.3963 81.877 12.7558C81.877 11.2811 82.335 10.1567 83.2511 9.38249C84.1859 8.58986 85.4479 8.19355 87.037 8.19355C88.6262 8.19355 89.8694 8.6083 90.7668 9.43779C91.6829 10.2488 92.141 11.3548 92.141 12.7558C92.141 14.3963 91.6829 15.5853 90.7668 16.3226C89.8507 17.0415 88.5888 17.4009 86.9809 17.4009Z" fill="#242D3D"/>
<path d="M97.8623 49.2535C97.8623 47.2811 97.8623 45.3733 97.8623 43.53C97.8623 41.6682 97.8623 39.5945 97.8623 37.3088V21.9631C97.8623 19.7143 97.8623 17.4931 97.8623 15.2995C97.8623 13.0876 97.8623 10.894 97.8623 8.71889L106.247 8C106.247 10.1751 106.247 12.4147 106.247 14.7189C106.247 17.0046 106.247 19.4194 106.247 21.9631V37.3088C106.247 39.5945 106.247 41.6682 106.247 43.53C106.247 45.3733 106.247 47.2811 106.247 49.2535H97.8623Z" fill="#242D3D"/>
<path d="M112.706 49.2535C112.706 47.2811 112.706 45.3733 112.706 43.53C112.706 41.6682 112.706 39.5945 112.706 37.3088V21.9631C112.706 19.7143 112.706 17.4931 112.706 15.2995C112.706 13.0876 112.706 10.894 112.706 8.71889L121.091 8C121.091 10.1751 121.091 12.4147 121.091 14.7189C121.091 17.0046 121.091 19.4194 121.091 21.9631V37.3088C121.091 39.5945 121.091 41.6682 121.091 43.53C121.091 45.3733 121.091 47.2811 121.091 49.2535H112.706Z" fill="#242D3D"/>
<path d="M127.718 49.2535C127.718 47.2811 127.718 45.3733 127.718 43.53C127.718 41.6682 127.718 39.5945 127.718 37.3088V34.5438C127.718 32.7189 127.718 31.0876 127.718 29.6498C127.718 28.1935 127.718 26.8295 127.718 25.5576C127.718 24.2673 127.718 22.9677 127.718 21.659L136.103 21.4101C136.103 22.7373 136.103 24.0553 136.103 25.3641C136.103 26.6728 136.103 28.0645 136.103 29.5392C136.103 31.0138 136.103 32.682 136.103 34.5438V37.3088C136.103 39.5945 136.103 41.6682 136.103 43.53C136.103 45.3733 136.103 47.2811 136.103 49.2535H127.718ZM131.84 17.4009C130.288 17.4009 129.045 17.0415 128.11 16.3226C127.194 15.5853 126.736 14.3963 126.736 12.7558C126.736 11.2811 127.194 10.1567 128.11 9.38249C129.045 8.58986 130.307 8.19355 131.896 8.19355C133.485 8.19355 134.728 8.6083 135.626 9.43779C136.542 10.2488 137 11.3548 137 12.7558C137 14.3963 136.542 15.5853 135.626 16.3226C134.71 17.0415 133.448 17.4009 131.84 17.4009Z" fill="#242D3D"/>
<path fill-rule="evenodd" clip-rule="evenodd" d="M11.7647 38.2353H25C32.3096 38.2353 38.2353 32.3096 38.2353 25C38.2353 17.6903 32.3096 11.7647 25 11.7647C17.6903 11.7647 11.7647 17.6903 11.7647 25V38.2353ZM25 0C11.1929 0 0 11.1929 0 25V50H25C38.8071 50 50 38.8071 50 25C50 11.1929 38.8071 0 25 0Z" fill="url(#paint0_linear)"/>
<defs>
<linearGradient id="paint0_linear" x1="10.8696" y1="4.81682e-07" x2="38.0435" y2="50" gradientUnits="userSpaceOnUse">
<stop stop-color="#713FE9"/>
<stop offset="0.265625" stop-color="#5A21E0"/>
<stop offset="0.848958" stop-color="#4C1CBF"/>
<stop offset="1" stop-color="#602CDB"/>
</linearGradient>
</defs>
</svg>
